<?xml version="1.0" encoding="UTF-8" standalone="no"?>
<svg
   width="466.96799"
   height="163"
   viewBox="0 0 466.96799 163"
   version="1.1"
   id="svg163"
   sodipodi:docname="OpenDIAKiosk_logo.svg"
   inkscape:version="1.2.2 (b0a8486541, 2022-12-01)"
   xmlns:inkscape="http://www.inkscape.org/namespaces/inkscape"
   xmlns:sodipodi="http://sodipodi.sourceforge.net/DTD/sodipodi-0.dtd"
   xmlns="http://www.w3.org/2000/svg"
   xmlns:svg="http://www.w3.org/2000/svg">
  <sodipodi:namedview
     id="namedview165"
     pagecolor="#ffffff"
     bordercolor="#666666"
     borderopacity="1.0"
     inkscape:showpageshadow="2"
     inkscape:pageopacity="0.0"
     inkscape:pagecheckerboard="0"
     inkscape:deskcolor="#d1d1d1"
     showgrid="false"
     inkscape:zoom="3.4231221"
     inkscape:cx="229.32282"
     inkscape:cy="104.29076"
     inkscape:window-width="2560"
     inkscape:window-height="1371"
     inkscape:window-x="0"
     inkscape:window-y="0"
     inkscape:window-maximized="1"
     inkscape:current-layer="svg163" />
  <defs
     id="defs5">
    <clipPath
       id="bg-clip">
      <circle
         cx="98"
         cy="97"
         r="72"
         id="circle2" />
    </clipPath>
  </defs>
  <circle
     cx="82"
     cy="82"
     r="79"
     fill="#1d9e75"
     id="circle7" />
  <circle
     cx="82"
     cy="82"
     r="79"
     fill="none"
     stroke="#085041"
     stroke-width="2"
     id="circle9" />
  <g
     clip-path="url(#bg-clip)"
     id="g27"
     transform="translate(-16,-15)">
    <rect
       x="26"
       y="26"
       width="144"
       height="142"
       fill="#0f6e56"
       id="rect11" />
    <rect
       x="26"
       y="90"
       width="144"
       height="26"
       fill="#ef9f27"
       opacity="0.16"
       id="rect13" />
    <g
       stroke="#ffffff"
       stroke-width="0.5"
       opacity="0.15"
       id="g21">
      <line
         x1="74"
         y1="26"
         x2="74"
         y2="168"
         id="line15" />
      <line
         x1="118"
         y1="26"
         x2="118"
         y2="168"
         id="line17" />
      <line
         x1="162"
         y1="26"
         x2="162"
         y2="168"
         id="line19" />
    </g>
    <line
       x1="30"
       y1="156"
       x2="168"
       y2="156"
       stroke="#ffffff"
       stroke-width="1"
       opacity="0.38"
       id="line23" />
    <line
       x1="30"
       y1="28"
       x2="30"
       y2="156"
       stroke="#ffffff"
       stroke-width="1"
       opacity="0.38"
       id="line25" />
  </g>
  <circle
     cx="82"
     cy="82"
     r="74"
     fill="none"
     stroke="#ffffff"
     stroke-width="0.6"
     opacity="0.16"
     id="circle31" />
  <!-- Cycle 1: x 35, 46, 57, 68 -->
  <g
     opacity="0.6"
     id="g47"
     transform="translate(-16,-15)">
    <line
       x1="46"
       y1="82"
       x2="46"
       y2="68"
       stroke="#ffffff"
       stroke-width="1.4"
       id="line41" />
    <polygon
       points="49,82 46,88 43,82 "
       fill="#ffffff"
       id="polygon43" />
    <polygon
       points="49,68 46,62 43,68 "
       fill="#ffffff"
       id="polygon45" />
  </g>
  <g
     opacity="0.96"
     id="g55"
     transform="translate(-16,-15)">
    <line
       x1="57"
       y1="110"
       x2="57"
       y2="96"
       stroke="#ef9f27"
       stroke-width="1.7"
       id="line49" />
    <polygon
       points="60,110 57,116 54,110 "
       fill="#ef9f27"
       id="polygon51" />
    <polygon
       points="60,96 57,90 54,96 "
       fill="#ef9f27"
       id="polygon53" />
  </g>
  <g
     opacity="0.8"
     id="g63"
     transform="translate(-16,-15)">
    <line
       x1="68"
       y1="138"
       x2="68"
       y2="124"
       stroke="#ffffff"
       stroke-width="1.4"
       id="line57" />
    <polygon
       points="71,138 68,144 65,138 "
       fill="#ffffff"
       id="polygon59" />
    <polygon
       points="71,124 68,118 65,124 "
       fill="#ffffff"
       id="polygon61" />
  </g>
  <!-- Cycle 2: x 78, 89, 100, 111 -->
  <g
     opacity="0.42"
     id="g71"
     transform="translate(-16,-15)">
    <line
       x1="78"
       y1="53"
       x2="78"
       y2="39"
       stroke="#ffffff"
       stroke-width="1.4"
       id="line65" />
    <polygon
       points="81,53 78,59 75,53 "
       fill="#ffffff"
       id="polygon67" />
    <polygon
       points="81,39 78,33 75,39 "
       fill="#ffffff"
       id="polygon69" />
  </g>
  <g
     opacity="0.6"
     id="g79"
     transform="translate(-16,-15)">
    <line
       x1="89"
       y1="82"
       x2="89"
       y2="68"
       stroke="#ffffff"
       stroke-width="1.4"
       id="line73" />
    <polygon
       points="92,82 89,88 86,82 "
       fill="#ffffff"
       id="polygon75" />
    <polygon
       points="92,68 89,62 86,68 "
       fill="#ffffff"
       id="polygon77" />
  </g>
  <g
     opacity="0.96"
     id="g87"
     transform="translate(-16,-15)">
    <line
       x1="100"
       y1="110"
       x2="100"
       y2="96"
       stroke="#ef9f27"
       stroke-width="1.7"
       id="line81" />
    <polygon
       points="103,110 100,116 97,110 "
       fill="#ef9f27"
       id="polygon83" />
    <polygon
       points="103,96 100,90 97,96 "
       fill="#ef9f27"
       id="polygon85" />
  </g>
  <g
     opacity="0.8"
     id="g95"
     transform="translate(-16,-15)">
    <line
       x1="111"
       y1="138"
       x2="111"
       y2="124"
       stroke="#ffffff"
       stroke-width="1.4"
       id="line89" />
    <polygon
       points="114,138 111,144 108,138 "
       fill="#ffffff"
       id="polygon91" />
    <polygon
       points="114,124 111,118 108,124 "
       fill="#ffffff"
       id="polygon93" />
  </g>
  <!-- Cycle 3: x 121, 132, 143, 154 -->
  <g
     opacity="0.42"
     id="g103"
     transform="translate(-16,-15)">
    <line
       x1="121"
       y1="53"
       x2="121"
       y2="39"
       stroke="#ffffff"
       stroke-width="1.4"
       id="line97" />
    <polygon
       points="124,53 121,59 118,53 "
       fill="#ffffff"
       id="polygon99" />
    <polygon
       points="124,39 121,33 118,39 "
       fill="#ffffff"
       id="polygon101" />
  </g>
  <g
     opacity="0.6"
     id="g111"
     transform="translate(-16,-15)">
    <line
       x1="132"
       y1="82"
       x2="132"
       y2="68"
       stroke="#ffffff"
       stroke-width="1.4"
       id="line105" />
    <polygon
       points="135,82 132,88 129,82 "
       fill="#ffffff"
       id="polygon107" />
    <polygon
       points="135,68 132,62 129,68 "
       fill="#ffffff"
       id="polygon109" />
  </g>
  <g
     opacity="0.96"
     id="g119"
     transform="translate(-16,-15)">
    <line
       x1="143"
       y1="110"
       x2="143"
       y2="96"
       stroke="#ef9f27"
       stroke-width="1.7"
       id="line113" />
    <polygon
       points="146,110 143,116 140,110 "
       fill="#ef9f27"
       id="polygon115" />
    <polygon
       points="146,96 143,90 140,96 "
       fill="#ef9f27"
       id="polygon117" />
  </g>
  <g
     opacity="0.8"
     id="g127"
     transform="translate(-16,-15)">
    <line
       x1="154"
       y1="138"
       x2="154"
       y2="124"
       stroke="#ffffff"
       stroke-width="1.4"
       id="line121" />
    <polygon
       points="157,138 154,144 151,138 "
       fill="#ffffff"
       id="polygon123" />
    <polygon
       points="157,124 154,118 151,124 "
       fill="#ffffff"
       id="polygon125" />
  </g>
  <!-- Cycle 4 partial overflow: x 164, 175, 186 -->
  <g
     opacity="0.35"
     id="g135"
     transform="translate(-16,-15)">
    <line
       x1="164"
       y1="82"
       x2="164"
       y2="68"
       stroke="#ffffff"
       stroke-width="1.2"
       id="line129" />
    <polygon
       points="167,82 164,88 161,82 "
       fill="#ffffff"
       id="polygon131" />
    <polygon
       points="167,68 164,62 161,68 "
       fill="#ffffff"
       id="polygon133" />
  </g>
  <g
     opacity="0.55"
     id="g151"
     transform="translate(-16,-15)">
    <line
       x1="186"
       y1="138"
       x2="186"
       y2="124"
       stroke="#ffffff"
       stroke-width="1.2"
       id="line145" />
    <polygon
       points="189,138 186,144 183,138 "
       fill="#ffffff"
       id="polygon147" />
    <polygon
       points="189,124 186,118 183,124 "
       fill="#ffffff"
       id="polygon149" />
  </g>
  <text
     y="73"
     dominant-baseline="central"
     font-size="44px"
     font-family="sans-serif"
     id="text159"
     x="-50"><tspan
       x="168"
       fill="#2c2c2a"
       font-weight="400"
       id="tspan153">Open</tspan><tspan
       fill="#1d9e75"
       font-weight="500"
       id="tspan155">DIA</tspan><tspan
       fill="#2c2c2a"
       font-weight="400"
       id="tspan157">Kiosk</tspan></text>
  <text
     x="169"
     y="110"
     font-size="13px"
     font-family="sans-serif"
     fill="#888780"
     id="text161">Data-Independent Acquisition Information Hub</text>
</svg>
